# xmcd
#
# Track frame offsets: 
#        150
#        29040
#        47312
#        72638
#        83211
#        108693
#        132895
#        153277
#        171987
#        198603
#        211739
#        231528
#        244955
#        261027
#        282752
#        317990
#
# Disc length: 4754 seconds
#
# Revision: 0
# Processed by: cddbd v1.5.2PL0 Copyright (c) Steve Scherf et al.
# Submitted via: ExactAudioCopy v1.0b3
#
DISCID=f2129010
DTITLE=Various Artist - Songs Of Led Zeppelin  CD-1
DYEAR=2000
DGENRE=Blues
TTITLE0=Otis Clay - Since I've Been Loving You
TTITLE1=Eric Gales - Custard Pie
TTITLE2=Matthew Tutor, Eric Gales, Derek Trucks - Custard Pie (Revisit
TTITLE2=ed)
TTITLE3=Magic Slim, Billy Branch, James Cotton  - When The Levee Break
TTITLE3=s (Part1)
TTITLE4=Alvin Youngblood Hart - Heartbreaker
TTITLE5=Otis Rush, Eric Gales - I Can't Quit You Baby
TTITLE6=Magic Slim, James Cotton - When The Levee Breaks (Part2)
TTITLE7=Chris Thomas King - Hey,Hey (What Can I Do)
TTITLE8=Clarence Gatemouth Brown - Rock'n'Roll
TTITLE9=Joe Louis Walker - You Need Love
TTITLE10=Carl Weathersby - Good Times, Bad Times
TTITLE11=Robert Lockwood Jr. - Bring It On Home (Part1)
TTITLE12=Robert Lockwood Jr. - Bring It On Home (Part2)
TTITLE13=Eric Gales - Trampled Underfoot
TTITLE14=Robert Plant and Tori Amos - Down By The Seaside
TTITLE15=Great White - Stairway To Heaven
EXTD=
EXTT0=
EXTT1=
EXTT2=
EXTT3=
EXTT4=
EXTT5=
EXTT6=
EXTT7=
EXTT8=
EXTT9=
EXTT10=
EXTT11=
EXTT12=
EXTT13=
EXTT14=
EXTT15=
PLAYORDER=
